<?xml version="1.0" encoding="UTF-8"?><!DOCTYPE svg PUBLIC "-//W3C//DTD SVG 1.1//EN"
    "http://www.w3.org/Graphics/SVG/1.1/DTD/svg11.dtd">
<svg xmlns:xlink="http://www.w3.org/1999/xlink" height="24" version="1.1"
     viewBox="0 0 24 24" width="24" xmlns="http://www.w3.org/2000/svg">
    <path
        d="M17,8C8,10 5.9,16.17 3.82,21.34L5.71,22L6.66,19.7C7.14,19.87 7.64,20 8,20C19,20 22,3 22,3C21,5 14,5.25 9,6.25C4,7.25 2,11.5 2,13.5C2,15.5 3.75,17.25 3.75,17.25C7,8 17,8 17,8Z"/>
    <path d="M13,3L14,3.06C16.8,1.79 19.23,1.64 20.5,2.92C21.5,3.93 21.58,5.67 20.92,7.72C21.61,9 22,10.45 22,12L21.95,13H9.08C9.45,15.28 11.06,17 13,17C14.31,17 15.47,16.21 16.2,15H21.5C20.25,18.5 16.92,21 13,21C11.72,21 10.5,20.73 9.41,20.25C6.5,21.68 3.89,21.9 2.57,20.56C1,18.96 1.68,15.57 4,12C4.93,10.54 6.14,9.06 7.57,7.65L8.38,6.88C7.21,7.57 5.71,8.62 4.19,10.17C5.03,6.08 8.66,3 13,3M13,7C11.21,7 9.69,8.47 9.18,10.5H16.82C16.31,8.47 14.79,7 13,7M20.06,4.06C19.4,3.39 18.22,3.35 16.74,3.81C18.22,4.5 19.5,5.56 20.41,6.89C20.73,5.65 20.64,4.65 20.06,4.06M3.89,20C4.72,20.84 6.4,20.69 8.44,19.76C6.59,18.67 5.17,16.94 4.47,14.88C3.27,17.15 3,19.07 3.89,20Z"
          fill="#000000"/>
</svg>